<?xml version="1.0"?>
<svg xmlns="http://www.w3.org/2000/svg" class="icon--sprite">
  <defs>
    <symbol viewBox="0 0 24 24" stroke-linecap="round" stroke-linejoin="round" id="icon--checklist">
      <path d="M9.615 20h-2.615a2 2 0 0 1 -2 -2v-12a2 2 0 0 1 2 -2h8a2 2 0 0 1 2 2v8"/>
      <path d="M14 19l2 2l4 -4"/>
      <path d="M9 8h4"/>
      <path d="M9 12h2"/>
    </symbol>
    <symbol viewBox="0 0 24 24" stroke-linecap="round" stroke-linejoin="round" id="icon--dots-vertical">
      <path d="M12 12m-1 0a1 1 0 1 0 2 0a1 1 0 1 0 -2 0"/>
      <path d="M12 19m-1 0a1 1 0 1 0 2 0a1 1 0 1 0 -2 0"/>
      <path d="M12 5m-1 0a1 1 0 1 0 2 0a1 1 0 1 0 -2 0"/>
    </symbol>
    <symbol viewBox="0 0 24 24" stroke-linecap="round" stroke-linejoin="round" id="icon--inbox">
      <path d="M4 4m0 2a2 2 0 0 1 2 -2h12a2 2 0 0 1 2 2v12a2 2 0 0 1 -2 2h-12a2 2 0 0 1 -2 -2z"/>
      <path d="M4 13h3l3 3h4l3 -3h3"/>
    </symbol>
    <symbol viewBox="0 0 24 24" stroke-linecap="round" stroke-linejoin="round" id="icon--plus">
      <path d="M12 5l0 14"/>
      <path d="M5 12l14 0"/>
    </symbol>
    <symbol viewBox="0 0 24 24" stroke-linecap="round" stroke-linejoin="round" id="icon--reload">
      <path d="M19.933 13.041a8 8 0 1 1 -9.925 -8.788c3.899 -1 7.935 1.007 9.425 4.747"/>
      <path d="M20 4v5h-5"/>
    </symbol>
  </defs>
</svg>
